<?xml version="1.0" standalone="no"?>
<!DOCTYPE svg PUBLIC "-//W3C//DTD SVG 20010904//EN"
 "http://www.w3.org/TR/2001/REC-SVG-20010904/DTD/svg10.dtd">
<svg version="1.0" xmlns="http://www.w3.org/2000/svg"
 width="1024.000000pt" height="1024.000000pt" viewBox="0 0 1024.000000 1024.000000"
 preserveAspectRatio="xMidYMid meet">

<g transform="translate(0.000000,1024.000000) scale(0.100000,-0.100000)"
fill="#000000" stroke="none">
<path d="M6845 8394 c-185 -47 -255 -86 -375 -208 l-75 -76 -1875 -3 c-2063
-3 -1902 2 -2037 -63 -187 -91 -302 -221 -376 -429 l-22 -60 -3 -2440 c-2
-1760 0 -2455 8 -2495 52 -258 246 -477 482 -543 135 -38 127 -38 2573 -35
l2380 3 70 22 c259 78 448 264 509 500 14 55 16 319 16 2519 0 1682 -3 2472
-11 2499 -74 284 -292 479 -589 529 -27 5 -53 24 -105 77 -140 142 -263 199
-445 205 -58 1 -114 1 -125 -2z m-972 -804 c5 -4 7 -17 5 -28 -4 -24 -1811
-1849 -1872 -1891 -23 -16 -67 -38 -99 -49 -144 -54 -220 -114 -263 -208 -19
-39 -27 -86 -39 -220 -30 -331 -64 -563 -106 -724 -52 -200 -125 -417 -189
-561 -62 -140 -72 -181 -59 -235 13 -52 62 -112 105 -130 67 -28 104 -19 378
90 310 124 571 213 991 336 171 50 338 105 373 121 68 33 148 106 186 172 14
23 48 107 75 186 28 79 59 156 68 171 22 33 2137 2164 2170 2185 l23 16 -2
-1998 -3 -1998 -33 -67 c-41 -84 -128 -167 -209 -200 l-58 -23 -2215 0 -2215
0 -60 24 c-82 33 -173 124 -206 206 l-24 60 -3 2220 c-2 1655 0 2234 8 2275
19 87 66 167 125 209 98 72 -22 65 1395 71 1315 6 1739 4 1753 -10z m1140
-280 c64 -63 117 -119 117 -124 0 -12 -372 -386 -385 -386 -13 0 -405 392
-405 405 0 6 86 96 190 200 l190 189 88 -84 c48 -47 140 -137 205 -200z m-914
-467 c35 -52 169 -191 306 -316 l50 -46 -195 -198 c-107 -109 -360 -364 -561
-568 -485 -491 -661 -672 -700 -720 -47 -59 -94 -167 -129 -296 -48 -180 -25
-158 -228 -214 -171 -46 -490 -150 -600 -194 -49 -19 -53 -20 -48 -4 31 101
80 381 111 638 25 218 20 201 73 216 69 18 157 63 216 109 29 22 413 402 853
845 440 443 803 805 806 805 4 0 24 -26 46 -57z"/>
<path d="M3251 3295 c-51 -16 -116 -75 -137 -124 -8 -18 -14 -59 -14 -91 0
-49 5 -65 33 -106 19 -29 49 -57 76 -71 l44 -23 1096 0 c1235 0 1138 -6 1213
78 61 68 71 148 28 232 -24 46 -55 74 -110 99 -44 20 -59 21 -1115 20 -877 0
-1078 -3 -1114 -14z"/>
</g>
</svg>
